<?xml version="1.0" encoding="UTF-8"?>
<svg width="40px" height="40px" viewBox="0 0 40 40" version="1.1" xmlns="http://www.w3.org/2000/svg" xmlns:xlink="http://www.w3.org/1999/xlink">
    <!-- Generator: Sketch 46.2 (44496) - http://www.bohemiancoding.com/sketch -->
    <title>peace</title>
    <desc>Created with Sketch.</desc>
    <defs>
        <polygon id="path-1" points="0 39.7826087 0 0.14 39.6421739 0.14 39.6421739 39.7826087"></polygon>
        <polygon id="path-3" points="0 39.86 39.6421739 39.86 39.6421739 0.217391304 0 0.217391304"></polygon>
    </defs>
    <g id="Symbols" stroke="none" stroke-width="1" fill="none" fill-rule="evenodd">
        <g id="Header" transform="translate(-12.000000, -32.000000)">
            <g id="peace---white">
                <g transform="translate(12.000000, 32.000000)">
                    <g id="peace">
                        <g id="Group-3" transform="translate(0.000000, 0.077391)">
                            <mask id="mask-2" fill="white">
                                <use xlink:href="#path-1"></use>
                            </mask>
                            <g id="Clip-2"></g>
                            <path d="M19.821087,1.11826087 L19.821087,2.09652174 C24.7573913,2.09717391 29.2173913,4.09456522 32.4532609,7.32913043 C35.6876087,10.5652174 37.6852174,15.0252174 37.6856522,19.9615217 C37.6852174,24.8976087 35.6876087,29.3576087 32.4532609,32.5936957 C29.2173913,35.8280435 24.7573913,37.8256522 19.821087,37.826087 C14.885,37.8256522 10.425,35.8280435 7.18913043,32.5936957 C3.95456522,29.3576087 1.95695652,24.8976087 1.95652174,19.9615217 C1.95695652,15.0252174 3.95456522,10.5652174 7.18913043,7.32913043 C10.425,4.09456522 14.885,2.09717391 19.821087,2.09652174 L19.821087,1.11826087 L19.821087,0.14 C14.3508696,0.139565217 9.38934783,2.36 5.80543478,5.94565217 C2.22021739,9.52956522 -0.000652173913,14.491087 -5.29395592e-23,19.9615217 C-0.000652173913,25.4317391 2.22021739,30.3932609 5.80543478,33.9771739 C9.38934783,37.5623913 14.3508696,39.7830435 19.821087,39.7826087 C25.2915217,39.7830435 30.2530435,37.5623913 33.8367391,33.9771739 C37.4219565,30.3932609 39.6426087,25.4317391 39.6421739,19.9615217 C39.6426087,14.491087 37.4221739,9.52956522 33.8367391,5.94565217 C30.2530435,2.36 25.2915217,0.139565217 19.821087,0.14 L19.821087,1.11826087" id="Fill-1" fill="#FFFFFF" mask="url(#mask-2)"></path>
                        </g>
                        <polyline id="Fill-6" fill="#FFFFFF" points="19.7975217 20.5308478 31.9618696 6.03454348 30.4629565 4.77693478 18.2988261 19.2732391"></polyline>
                        <polyline id="Fill-10" fill="#FFFFFF" points="18.1058478 20.6429565 30.522587 35.2562174 32.0138913 33.9892609 19.5967174 19.376"></polyline>
                        <polyline id="Fill-14" fill="#FFFFFF" points="1.47371739 21.0435435 19.399587 21.0435435 19.399587 19.0870217 1.47371739 19.0870217"></polyline>
                        <path d="M32.8402609,24.0806522 L34.5254783,24.0806522 L32.0183043,20.5543478 C32.4950435,20.3021739 32.802,20.1078261 32.9387391,19.9706522 C33.1798261,19.7515217 33.3633043,19.4802174 33.4893913,19.1571739 C33.6211304,18.8445652 33.687,18.5215217 33.687,18.1871739 C33.687,17.8528261 33.6211304,17.5295652 33.4893913,17.2171739 C33.3689565,16.921087 33.1854783,16.65 32.9387391,16.4032609 C32.7087391,16.1621739 32.4372174,15.9813043 32.1252609,15.8608696 C31.9935217,15.8006522 31.6700435,15.7347826 31.1550435,15.6634783 L30.7852609,15.6634783 L26.1083043,15.6634783 L26.1083043,17.3486957 L27.793087,17.3486957 L27.793087,22.3954348 L26.1083043,22.3954348 L26.1083043,24.0806522 L29.4783043,24.0806522 L29.4702609,22.3954348 L29.4783043,22.3954348 L29.4783043,20.7106522 L30.5385217,20.7106522 L32.8402609,24.0806522 Z M31.4756957,17.4143478 C31.5796087,17.4528261 31.673087,17.5130435 31.7554783,17.5952174 C31.8374348,17.6884783 31.8976522,17.7786957 31.935913,17.8665217 C31.9800435,17.9815217 32.0017826,18.0884783 32.0017826,18.1869565 C32.0017826,18.2967391 31.9800435,18.4034783 31.935913,18.5073913 C31.8976522,18.5954348 31.8374348,18.6858696 31.7554783,18.7786957 C31.662,18.8721739 31.5689565,18.9321739 31.4756957,18.9595652 C31.4098261,18.9926087 31.3033043,19.0173913 31.1550435,19.0334783 L30.7524348,19.0334783 L29.4783043,19.0334783 L29.4783043,17.3486957 L30.8343913,17.3486957 L31.1550435,17.3486957 C31.2646087,17.3486957 31.3715652,17.3706522 31.4756957,17.4143478 L31.4756957,17.4143478 Z" id="Fill-16" fill="#FFFFFF"></path>
                        <polygon id="Fill-20" fill="#FFFFFF" points="10.6349348 8.63865217 12.3199348 8.63865217 12.3199348 13.6856087 10.6349348 13.6856087 10.6349348 15.3706087 19.0521087 15.3706087 19.0521087 12.0006087 17.3668913 12.0006087 17.3668913 13.6856087 14.0049348 13.6856087 14.0049348 12.0006087 15.6818913 12.0006087 15.6818913 10.3236522 14.0049348 10.3236522 14.0049348 8.63865217 17.3668913 8.63865217 17.3668913 10.3236522 19.0521087 10.3236522 19.0521087 6.95365217 10.6349348 6.95365217"></polygon>
                        <polygon id="Fill-24" fill="#FFFFFF" points="17.1908478 24.8661522 18.9451957 24.8661522 15.4365 33.6298478 13.690413 33.6298478 10.1817174 24.8661522 11.9360652 24.8661522 13.365413 28.4263696 14.5634565 31.4387609 15.7273696 28.4007174"></polygon>
                        <mask id="mask-4" fill="white">
                            <use xlink:href="#path-3"></use>
                        </mask>
                        <g id="Clip-29"></g>
                        <polygon id="Fill-28" fill="#FFFFFF" mask="url(#mask-4)" points="14.5313043 26.6317391 17.5017391 26.6317391 17.5017391 24.8384783 14.5313043 24.8384783"></polygon>
                    </g>
                </g>
            </g>
        </g>
    </g>
</svg>