<?xml version="1.0" encoding="UTF-8"?>
<svg width="20px" height="20px" viewBox="0 0 20 20" version="1.1" xmlns="http://www.w3.org/2000/svg" xmlns:xlink="http://www.w3.org/1999/xlink">
    <!-- Generator: Sketch 46.2 (44496) - http://www.bohemiancoding.com/sketch -->
    <title>mbri-info copy 2</title>
    <desc>Created with Sketch.</desc>
    <defs></defs>
    <g id="Page-1" stroke="none" stroke-width="1" fill="none" fill-rule="evenodd">
        <g id="menu_detail" transform="translate(-64.000000, -687.000000)" fill-rule="nonzero" fill="#4A4A4A">
            <g id="Citrusy-Madagascar-Fresh-Bar" transform="translate(24.000000, 322.000000)">
                <g id="70%-dark-chocolate" transform="translate(40.000000, 365.000000)">
                    <g id="mbri-info-copy-2">
                        <path d="M10,4 C9.26666667,4 8.66666667,4.6 8.66666667,5.33333333 C8.66666667,6.06666667 9.26666667,6.66666667 10,6.66666667 C10.7333333,6.66666667 11.3333333,6.06666667 11.3333333,5.33333333 C11.3333333,4.6 10.7333333,4 10,4 Z M10,4.66666667 C10.3753333,4.66666667 10.6666667,4.958 10.6666667,5.33333333 C10.6666667,5.70866667 10.3753333,6 10,6 C9.62466667,6 9.33333333,5.70866667 9.33333333,5.33333333 C9.33333333,4.958 9.62466667,4.66666667 10,4.66666667 Z M10,0 C4.48133333,0 0,4.48133333 0,10 C0,15.5186667 4.48133333,20 10,20 C15.5186667,20 20,15.5186667 20,10 C20,4.48133333 15.5186667,0 10,0 Z M10,0.666666667 C15.1586667,0.666666667 19.3333333,4.84133333 19.3333333,10 C19.3333333,15.1586667 15.1586667,19.3333333 10,19.3333333 C4.84133333,19.3333333 0.666666667,15.1586667 0.666666667,10 C0.666666667,4.84133333 4.84133333,0.666666667 10,0.666666667 Z M10,7.33333333 C9.26666667,7.33333333 8.66666667,7.93333333 8.66666667,8.66666667 L8.66666667,14.6666667 C8.66666667,15.4 9.26666667,16 10,16 C10.7333333,16 11.3333333,15.4 11.3333333,14.6666667 L11.3333333,8.66666667 C11.3333333,7.93333333 10.7333333,7.33333333 10,7.33333333 Z M10,8 C10.3753333,8 10.6666667,8.29133333 10.6666667,8.66666667 L10.6666667,14.6666667 C10.6666667,15.042 10.3753333,15.3333333 10,15.3333333 C9.62466667,15.3333333 9.33333333,15.042 9.33333333,14.6666667 L9.33333333,8.66666667 C9.33333333,8.29133333 9.62466667,8 10,8 Z" id="Shape"></path>
                    </g>
                </g>
            </g>
        </g>
    </g>
</svg>