<?xml version="1.0" encoding="UTF-8"?>
<svg width="118px" height="116px" viewBox="0 0 118 116" version="1.1" xmlns="http://www.w3.org/2000/svg" xmlns:xlink="http://www.w3.org/1999/xlink">
    <!-- Generator: Sketch 46.2 (44496) - http://www.bohemiancoding.com/sketch -->
    <title>Donation Icon 2</title>
    <desc>Created with Sketch.</desc>
    <defs></defs>
    <g id="Page-1" stroke="none" stroke-width="1" fill="none" fill-rule="evenodd">
        <g id="DONATE" transform="translate(-128.000000, -851.000000)">
            <g id="East-Van-Roasters-is..." transform="translate(24.000000, 369.000000)">
                <g id="Donation-Icon-2" transform="translate(163.500000, 541.500000) rotate(-41.000000) translate(-163.500000, -541.500000) translate(113.000000, 496.000000)">
                    <g id="Group-2" transform="translate(0.000000, 31.111111)">
                        <path d="M5.19592783,7.98153965 L56.6666667,10 L56.6666667,18.8888889 L5.19592783,20.9073492 L5.19592783,20.9073492 C2.43662499,21.0155572 0.112048201,18.8664202 0.00384024634,16.1071173 C0.00128032795,16.0418394 8.00038414e-18,15.9765176 0,15.9111895 L0,12.9776994 L-8.8817842e-16,12.9776994 C-1.2263553e-15,10.2162757 2.23857625,7.97769941 5,7.97769941 C5.06532809,7.97769941 5.13064991,7.97897974 5.19592783,7.98153965 Z" id="Rectangle" fill="#F5A623"></path>
                        <polygon id="Rectangle-2" fill="#BF7C7C" points="55.5555556 10 64.4444444 7.77777778 64.4444444 14.4444444 64.4444444 21.1111111 55.5555556 18.8888889"></polygon>
                        <path d="M79.4444444,28.8888889 C90.1833146,28.8888889 100,19.9672919 100,14.4444444 C100,8.92159695 90.1833146,0 79.4444444,0 C68.7055743,0 60,8.92159695 60,14.4444444 C60,19.9672919 68.7055743,28.8888889 79.4444444,28.8888889 Z" id="Oval" stroke="#979797" fill="#FFFFFF"></path>
                        <path d="M79.4444444,21.1111111 C90.1833146,21.1111111 100,19.9672919 100,14.4444444 C100,8.92159695 90.1833146,7.77777778 79.4444444,7.77777778 C68.7055743,7.77777778 60,8.92159695 60,14.4444444 C60,19.9672919 68.7055743,21.1111111 79.4444444,21.1111111 Z" id="Oval" stroke="#979797" fill="#FFFFFF"></path>
                    </g>
                    <g id="Group" transform="translate(5.555556, 66.666667)">
                        <path d="M5,6.66666667 L52.2222222,6.66666667 L52.2222222,16.6666667 L5,16.6666667 L5,16.6666667 C2.23857625,16.6666667 3.38176876e-16,14.4280904 0,11.6666667 L0,11.6666667 L0,11.6666667 C-3.38176876e-16,8.90524292 2.23857625,6.66666667 5,6.66666667 Z" id="Rectangle-3" fill="#D39157"></path>
                        <path d="M53.1111111,0 L86.8888889,0 L86.8888889,0 C87.9934584,-4.1271253e-15 88.8888889,0.8954305 88.8888889,2 L88.8888889,11.6666667 L88.8888889,11.6666667 C88.8888889,18.1099887 83.6655443,23.3333333 77.2222222,23.3333333 L53.1111111,23.3333333 L53.1111111,23.3333333 C52.0065416,23.3333333 51.1111111,22.4379028 51.1111111,21.3333333 L51.1111111,2 L51.1111111,2 C51.1111111,0.8954305 52.0065416,2.02906125e-16 53.1111111,0 Z" id="Rectangle-4" fill="#D47878"></path>
                    </g>
                    <g id="Group-3" transform="translate(2.222222, 0.000000)" fill="#F5A623">
                        <rect id="Rectangle-5" opacity="0.755095109" x="0" y="8.88888889" width="97.7777778" height="10" rx="5"></rect>
                        <rect id="Rectangle-6" x="26.6666667" y="0" width="44.4444444" height="26.6666667" rx="8"></rect>
                    </g>
                    <path d="M43.5360149,7.04785327 C43.4998259,7.74981962 43.3445582,9.1037839 43.9381491,9.42526763 C42.7886581,10.341707 44.2836721,11.924593 44.742117,12.6891704 C44.9241135,12.9928943 45.0424412,13.3536604 45.2244377,13.6965162 C45.5752164,14.357394 45.8234343,15.0122516 46.2294727,15.6710223 C46.5978203,16.2679346 46.8859814,16.6916128 47.3553882,17.1619483 C47.541439,17.3485774 47.7534679,17.5126305 47.958289,17.6857139 C48.6497855,18.2702846 49.0981696,18.6530248 49.9281156,19.055933 C50.3177862,19.2448198 50.6766737,19.4094748 51.0941243,19.5796986 C51.2184585,19.6304196 51.3741767,19.6972449 51.4962584,19.740892 C52.6325351,20.1474124 54.420215,20.3853646 55.7978022,20.3453296 C56.188524,20.3338911 56.5565713,20.2137862 56.9636608,20.1841362 C57.8191343,20.1218262 58.6680007,20.3146261 59.3356215,19.9826069 C59.2974803,19.6972449 59.4830807,19.3852431 59.4161084,19.015597 C59.376916,18.7997695 59.1453661,18.6557339 59.0543678,18.4513449 C58.9636699,18.2483105 58.9307844,17.9980167 58.8533008,17.7663859 C58.6492305,17.1571321 58.4340482,16.5006189 58.2100063,15.8725517 C58.0681031,15.4747607 57.9305546,15.0247437 57.7276856,14.6233406 C57.6368375,14.4442368 57.4925317,14.2834949 57.4058882,14.0995749 C57.0952028,13.4389981 56.74983,12.8023519 56.280273,12.2460767 C55.857867,11.7453387 54.9753643,11.0581221 54.3906331,10.6341428 C53.8677686,10.2548642 53.4213367,9.923146 52.7825471,9.62679699 C51.2456379,8.91339208 49.0905113,8.82970998 47.1140776,8.41792183 C46.8712655,8.36735135 46.5823536,8.31331921 46.2698663,8.25672844 C45.9773505,8.20374984 45.6534508,8.07175488 45.4256549,8.09553505 C45.0513008,8.13466696 44.8811671,8.42499567 44.7020237,8.7403086 C44.6267925,8.61523698 44.3528968,8.44170199 44.5410499,8.29706441 C45.0766782,7.70060372 44.4821864,6.84075513 43.5360149,7.04785327 M46.5512701,9.10288085 C47.0037085,9.15480589 47.5638132,9.16157872 47.958289,9.26407424 C48.3832478,9.37454665 48.8823866,9.75066456 49.3654581,9.98936924 C49.6028644,10.106765 49.8617439,10.1969189 50.0890893,10.3119065 C50.8441044,10.6934427 51.4444525,11.0736243 52.1394028,11.4804457 C52.3529333,11.6053668 52.5763745,11.7542186 52.7825471,11.8833539 C53.0181514,12.0308512 53.2894943,12.1523106 53.466085,12.2862622 C53.7986941,12.5385125 54.1541278,12.9891316 54.5113634,13.3339439 C54.8995325,13.7087073 55.3546738,14.0666138 55.5967351,14.3816257 C55.7928468,14.6365852 55.9470633,14.9774844 56.1194494,15.2681141 C56.6697936,16.1965941 57.1914567,17.1249235 57.7276856,18.0081007 C57.6860907,18.1093922 57.5965941,17.9552726 57.6069553,17.9679153 C57.5500438,17.8994344 57.5282703,17.78836 57.4863751,17.7262004 C56.9918913,16.9900689 56.5409545,16.2367795 56.079206,15.5098289 C55.8851965,15.2044495 55.755006,14.8429308 55.5566419,14.5830046 C55.3949173,14.3712407 55.0864843,14.1119165 54.8328605,13.8577096 C54.336875,13.3604332 53.9125169,13.0109551 53.3857483,12.6086489 C52.1963142,11.7001865 50.8046118,11.0111638 49.4457949,10.27142 C48.9016074,9.97522155 48.3113201,9.52174285 47.7974654,9.38508216 C46.8859814,9.14231378 45.956478,9.24104661 45.1038575,8.98202344 C45.5824241,9.0324434 46.065796,9.04734363 46.5512701,9.10288085 M47.3149945,13.0115572 C47.5196655,13.3065516 47.6934031,13.6138876 47.9181957,13.8980456 C48.1061987,14.1358472 48.3712348,14.4145868 48.6015835,14.7040125 C48.8316318,14.9928361 49.0119765,15.3969484 49.244878,15.5501649 C49.492195,15.7130139 49.9644548,15.7870635 50.3302497,15.9127372 C50.7125624,16.0442806 51.0950253,16.1994537 51.4157716,16.3157959 C52.1445083,16.5800868 52.9489267,16.7500096 53.6269086,17.0410909 C54.2038314,17.2886755 54.7097276,17.67563 55.2349946,17.9679153 C55.8048598,18.2848838 56.4094125,18.4961961 57.0039042,18.7737317 C56.4371925,18.6259335 55.8749855,18.5285552 55.3153313,18.4111595 C54.7639361,18.2952688 54.0880564,18.2716391 53.5868153,18.0887727 C53.4234389,18.0291718 53.2156146,17.8767078 53.0240077,17.7663859 C52.4599989,17.442193 51.885779,17.052981 51.3755281,16.7590401 C50.8103179,16.4333421 50.1880462,16.1111059 49.6468619,15.8322157 C49.1202434,15.5610014 48.9634742,15.4696435 48.6418269,15.0262488 C47.6825914,13.7049446 46.7780148,12.3865001 45.8276389,11.2385804 C46.4179261,11.8067457 46.8436357,12.3318659 47.3149945,13.0115572" id="Fill-28" fill="#E13404" transform="translate(51.460807, 13.683029) rotate(90.000000) translate(-51.460807, -13.683029) "></path>
                </g>
            </g>
        </g>
    </g>
</svg>