<?xml version="1.0" encoding="UTF-8"?>
<svg width="126px" height="120px" viewBox="0 0 126 120" version="1.1" xmlns="http://www.w3.org/2000/svg" xmlns:xlink="http://www.w3.org/1999/xlink">
    <!-- Generator: Sketch 46.2 (44496) - http://www.bohemiancoding.com/sketch -->
    <title>Donation Icon 1</title>
    <desc>Created with Sketch.</desc>
    <defs></defs>
    <g id="Page-1" stroke="none" stroke-width="1" fill="none" fill-rule="evenodd">
        <g id="DONATE" transform="translate(-133.000000, -604.000000)">
            <g id="East-Van-Roasters-is..." transform="translate(24.000000, 369.000000)">
                <g id="Donation-Icon-1" transform="translate(109.000000, 235.000000)">
                    <rect id="Rectangle" fill="#E13404" x="21.9859223" y="53.0097087" width="83.0927184" height="66.9902913"></rect>
                    <path d="M24.9859223,53.0097087 L63.8228155,53.0097087 L63.8228155,120 L24.9859223,120 L24.9859223,120 C23.3290681,120 21.9859223,118.656854 21.9859223,117 L21.9859223,56.0097087 L21.9859223,56.0097087 C21.9859223,54.3528545 23.3290681,53.0097087 24.9859223,53.0097087 Z" id="Rectangle-2" fill="#BDA38A"></path>
                    <path d="M64.4038835,53.0097087 L64.4038835,64.368932 L47.9830039,80.6817122 L47.9830039,80.6817122 C47.420975,81.2400412 46.6609175,81.5533981 45.8687005,81.5533981 L3.62473882,81.5533981 L3.62473882,81.5533981 C1.96788457,81.5533981 0.624738816,80.2102523 0.624738816,78.5533981 C0.624738816,77.8251515 0.889637418,77.1217684 1.3700273,76.5744398 L21.1566035,54.0307504 L21.1566035,54.0307504 C21.7262069,53.381777 22.5478252,53.0097087 23.411315,53.0097087 L64.4038835,53.0097087 Z" id="Path-2" fill="#DFBA76"></path>
                    <path d="M63.8228155,52.8931968 L63.8228155,64.4605433 L79.6447877,81.0315753 L79.6447877,81.0315753 C80.2108571,81.6244441 80.9948694,81.9598624 81.8145816,81.9598624 L123.010438,81.9598624 L123.010438,81.9598624 C124.667292,81.9598624 126.010438,80.6167167 126.010438,78.9598624 C126.010438,78.2497239 125.758525,77.5626099 125.299513,77.0207563 L105.759437,53.9540907 L105.759437,53.9540907 C105.189427,53.2812049 104.352227,52.8931968 103.470362,52.8931968 L63.8228155,52.8931968 Z" id="Path-3" fill="#BDA38A"></path>
                    <path d="M63.8237671,39.0291262 L60.8109614,36.4342824 C49.6296818,26.5784759 42.323301,20.9996684 42.323301,11.782673 C42.323301,5.14795394 47.4894361,0 54.1444895,0 C57.8062438,0 61.4606236,1.71606369 63.8237671,4.50036931 C66.1850074,1.71606369 69.8370084,0 73.502331,0 C80.1569087,0 85.3223301,5.14771681 85.3223301,11.782673 C85.3223301,19.9349833 78.0159492,26.5782388 66.8365728,36.4342824 L63.8237671,39.0291262 Z" id="Shape" fill="#E13404" fill-rule="nonzero"></path>
                    <path d="M61.3822379,18.983054 C61.3990393,18.9740841 61.41594,18.9650145 61.4327414,18.9560446 C61.2891844,18.5566856 61.1469198,18.1567285 60.9043443,17.8010229 C60.8838646,17.7709239 60.8520514,17.7287655 60.8097001,17.7575688 C60.7689395,17.7853754 60.7969748,17.8301251 60.8114896,17.8639117 C60.9366546,18.1557319 61.0578429,18.4494457 61.1931483,18.7364819 C61.236295,18.8280743 61.3180151,18.901428 61.3822379,18.983054 M68.074737,21.5511311 C68.138761,21.481764 68.1105268,21.4427949 68.0976027,21.4016331 C67.9486773,20.9267277 67.7939857,20.4535166 67.654803,19.9758205 C67.5269538,19.5373926 67.3524784,19.1303593 67.0780897,18.7566143 C66.8376019,18.4291139 66.5898568,18.1032082 66.3994748,17.7376357 C66.2763975,17.5011298 66.1448699,17.2572487 65.9528973,17.0692798 C65.4617813,16.5885938 64.9612208,16.1170771 64.454397,15.6529355 C64.0551416,15.2871637 63.6753718,14.8957778 63.2334668,14.5817323 C62.8042871,14.2766566 62.4055288,13.9384921 62.0207881,13.5811918 C61.8163884,13.391429 61.5704328,13.2756178 61.3107577,13.186218 C61.2569735,13.1676803 61.1745575,13.1254222 61.1490075,13.1993738 C61.1274342,13.261864 61.2181018,13.2717309 61.2646286,13.2952519 C61.4932858,13.4110631 61.717867,13.5341498 61.9032782,13.7143447 C62.5483898,14.3416385 63.2371452,14.9196975 63.9206315,15.5033378 C64.4905845,15.9899041 65.0502977,16.4850415 65.5502617,17.0461575 C66.1397997,17.7081348 66.6674014,18.4151608 67.1418155,19.1642456 C67.2843783,19.3896886 67.4057654,19.6214105 67.4651169,19.8794441 C67.5380884,20.1970776 67.6510252,20.5008576 67.7618742,20.8050363 C67.8519453,21.0524057 67.9648821,21.2915029 68.074737,21.5511311 M67.1843656,23.1733841 C67.2745361,23.1948121 67.3242442,23.1890315 67.3303086,23.1607266 C67.3417414,23.1084023 67.2932263,23.0983361 67.2635009,23.077207 C66.785309,22.7369495 66.3131815,22.3877221 65.9117389,21.9561711 C65.4922026,21.505285 64.995917,21.157453 64.4654322,20.8588556 C64.0390362,20.6189611 63.5973301,20.4043816 63.1883318,20.1356838 C62.8065737,19.8849257 62.4236225,19.6380547 62.0201916,19.4238738 C61.9740625,19.3993561 61.9146116,19.3413509 61.873851,19.4040404 C61.8379617,19.4594543 61.9168982,19.4843707 61.9510974,19.5133733 C62.2873229,19.7986155 62.636572,20.0694063 62.9614641,20.367007 C63.5340019,20.8915458 64.0912297,21.4328283 64.6565101,21.9653403 C64.8030496,22.1034765 64.95794,22.2329418 65.1415617,22.3199496 C65.6504732,22.5609405 66.1965663,22.7087442 66.7057761,22.951529 C66.8705087,23.0300653 67.0369314,23.1106946 67.1843656,23.1733841 M66.1951745,24.594313 C65.3674353,24.4195996 64.6288724,24.1613667 63.9026372,23.8700449 C63.0142541,23.5137412 62.2335388,22.9773423 61.4913969,22.3791509 C60.5326272,21.6066447 59.7875028,20.6559369 59.2136726,19.5757638 C58.8802307,18.9481711 58.6839831,18.2626728 58.5380402,17.5644173 C58.4548288,17.1658556 58.3183304,16.7777587 58.2483414,16.377403 C58.1350069,15.7291795 57.8209512,15.1561037 57.6139667,14.5436601 C57.5080884,14.2306113 57.4132454,13.9146721 57.433924,13.5776039 C57.4539066,13.2512995 57.5537205,12.963765 57.8290039,12.760946 C57.8940221,12.7130069 57.9568531,12.658789 57.9009812,12.5661002 C57.7125875,12.253151 57.7688571,11.9147871 57.8129979,11.5843965 C57.856741,11.2568961 57.9540695,10.9393623 58.0487137,10.6224265 C58.0821175,10.5109009 58.1393812,10.4715331 58.2576865,10.4896722 C58.5523561,10.5348206 58.8059668,10.6406652 58.9609566,10.9143463 C59.1323501,11.21703 59.0864199,11.5137337 58.8280372,11.7469507 C58.7627207,11.8058529 58.7074453,11.8642568 58.7205683,11.9603342 C58.7292175,12.0249173 58.7584458,12.0818262 58.8130253,12.1134202 C58.8828155,12.1538843 58.9084649,12.0810289 58.9459448,12.0451494 C59.3029483,11.7025996 59.4766284,11.6893441 59.9931949,11.9186741 C60.2059456,12.0131568 60.4187956,12.1157125 60.6329381,12.2077036 C61.4588878,12.5624126 62.2924926,12.8990821 63.1381267,13.2059518 C63.7833377,13.4400657 64.4190049,13.7029829 65.027929,14.021912 C65.7684802,14.4096102 66.3841647,14.9544807 66.9330415,15.5817744 C67.3786248,16.0909647 67.8239099,16.5999557 68.2119313,17.155889 C68.5030219,17.5728889 68.7000648,18.0369308 68.8487914,18.5185137 C69.0049743,19.0245147 69.135806,19.53819 69.2932812,20.0443903 C69.3927968,20.3645154 69.4101947,20.7038759 69.4505576,21.0365589 C69.521342,21.6194019 69.5856642,22.2031418 69.6580392,22.7857855 C69.689753,23.0408291 69.6588346,23.3009557 69.7243498,23.5526107 C69.7383675,23.6063304 69.7462214,23.6671262 69.776941,23.710082 C70.0191188,24.0487449 69.9065797,24.3823248 69.7636192,24.7118185 C69.6255301,25.0301496 69.5417223,25.072906 69.1913796,25.0387208 C68.8184695,25.002343 68.4516238,24.9445371 68.0929302,24.8241413 C67.7351313,24.7040446 67.3546655,24.7019516 66.981656,24.6868025 C66.6949397,24.6752413 66.4134925,24.6506239 66.1951745,24.594313" id="white-bean" fill="#FFFFFF"></path>
                </g>
            </g>
        </g>
    </g>
</svg>