<?xml version="1.0" encoding="UTF-8"?>
<svg width="53px" height="80px" viewBox="0 0 53 80" version="1.1" xmlns="http://www.w3.org/2000/svg" xmlns:xlink="http://www.w3.org/1999/xlink">
    <!-- Generator: Sketch 46.2 (44496) - http://www.bohemiancoding.com/sketch -->
    <title>chocolate bar</title>
    <desc>Created with Sketch.</desc>
    <defs>
        <path d="M0.724480556,0.416233577 C0.734786111,0.416233577 0.745091667,0.416233577 0.755397222,0.416233577 C0.972844444,0.416233577 1.16761944,0.467737226 1.31601944,0.648525547 C1.48709167,0.85979562 1.49121389,1.09524088 1.326325,1.31071533 C1.28407222,1.36537226 1.25006389,1.41687591 1.27376667,1.48940146 C1.28819444,1.53880292 1.31808056,1.57874453 1.363425,1.59556204 C1.42216667,1.61763504 1.43247222,1.55772263 1.45514444,1.52513869 C1.68083611,1.21191241 1.81171667,1.17722628 2.23424444,1.28338686 C2.40840833,1.32858394 2.58360278,1.3779854 2.75879722,1.4200292 C3.43381111,1.58084672 4.11088611,1.72694891 4.79414444,1.84887591 C5.31560556,1.94242336 5.833975,2.0580438 6.33997778,2.2220146 C6.95315833,2.42067153 7.49316944,2.7559708 7.99505,3.16694891 C8.40108889,3.49909489 8.80712778,3.83229197 9.17709722,4.20858394 C9.45328611,4.49132847 9.66558056,4.82242336 9.84283611,5.17454015 C10.0293667,5.54452555 10.1973472,5.92291971 10.3849083,6.2939562 C10.5023917,6.52624818 10.5611333,6.78586861 10.6353333,7.03813139 C10.7672444,7.47854015 10.8950333,7.92105109 11.0269444,8.36145985 C11.0856861,8.55486131 11.0970222,8.75982482 11.1804972,8.94481752 C11.1969861,8.98475912 11.2114139,9.0299562 11.2402694,9.05938686 C11.4700833,9.28852555 11.4288611,9.56075912 11.3639361,9.83509489 C11.3021028,10.0999708 11.2443917,10.1451679 10.9733556,10.1661898 C10.6858306,10.1893139 10.3993361,10.1945693 10.10975,10.1504234 C9.822225,10.1062774 9.53366944,10.1567299 9.24820556,10.1956204 C9.02869722,10.2261022 8.81228056,10.246073 8.63811667,10.2313577 C7.98680556,10.2103358 7.39114444,10.1115328 6.80063611,9.98540146 C6.07821667,9.83194161 5.41350833,9.5239708 4.76941111,9.16239416 C3.93878333,8.69781022 3.24521944,8.064 2.66501667,7.30721168 C2.328025,6.86890511 2.086875,6.36543066 1.882825,5.84513869 C1.76637222,5.54872993 1.61075833,5.26808759 1.50461111,4.96852555 C1.33147778,4.48186861 1.01612778,4.08245255 0.778069444,3.63678832 C0.654402778,3.40975182 0.542072222,3.17851095 0.512186111,2.91573723 C0.483330556,2.66137226 0.521461111,2.42487591 0.701808333,2.23042336 C0.746122222,2.18522628 0.785283333,2.13372263 0.731694444,2.07065693 C0.546194444,1.85413139 0.544133333,1.584 0.533827778,1.32332847 C0.523522222,1.06370803 0.554438889,0.806189781 0.583294444,0.547620438 C0.591538889,0.47719708 0.617302778,0.438306569 0.669861111,0.423591241 L0.7049,0.417284672 C0.711083333,0.417284672 0.718297222,0.416233577 0.724480556,0.416233577 Z M9.32240556,7.08963504 C9.4234,7.26832117 9.54088333,7.43859854 9.65939722,7.62359124 C9.69855833,7.56157664 9.67176389,7.53424818 9.65630556,7.50586861 C9.48008056,7.1579562 9.29870278,6.81424818 9.13072222,6.46423358 C8.97407778,6.14259854 8.78857778,5.85144526 8.52990833,5.60023358 C8.30318611,5.37950365 8.07131111,5.16192701 7.87756667,4.90545985 C7.75183889,4.73938686 7.62095833,4.56910949 7.44988611,4.45033577 C7.0119,4.14656934 6.56876111,3.84910949 6.1215,3.56005839 C5.77008056,3.3330219 5.42896667,3.08181022 5.05178333,2.89891971 C4.68490556,2.72233577 4.33657778,2.51527007 3.99649444,2.29243796 C3.81511667,2.17261314 3.61312778,2.11690511 3.40495556,2.08432117 C3.36167222,2.07591241 3.292625,2.05594161 3.28231944,2.11585401 C3.27510556,2.16735766 3.34518333,2.16210219 3.38331389,2.17366423 C3.57293611,2.23252555 3.76049722,2.29664234 3.92538611,2.41121168 C4.498375,2.80747445 5.09918889,3.15959124 5.69588056,3.5169635 C6.19363889,3.81547445 6.68521389,4.12239416 7.13968889,4.48817518 C7.67660833,4.91807299 8.17230556,5.39316788 8.63193333,5.90715328 C8.77002778,6.06166423 8.89369444,6.22353285 8.97304722,6.41588321 C9.07095,6.65132847 9.19667778,6.8699562 9.32240556,7.08963504 Z M4.05729722,6.38855474 C4.10161111,6.45372263 4.17375,6.49891971 4.23352222,6.55357664 C4.24485833,6.54411679 4.25619444,6.53465693 4.26856111,6.52519708 C4.10573333,6.23719708 3.94393611,5.94709489 3.71206111,5.70534307 C3.69248056,5.68537226 3.66156389,5.6569927 3.63373889,5.68432117 C3.60694444,5.71164964 3.63373889,5.74213139 3.65022778,5.76630657 C3.7842,5.97442336 3.91508056,6.18569343 4.05729722,6.38855474 Z M9.19976944,8.99947445 C9.21110556,8.99947445 9.22038056,8.99947445 9.22965556,8.99947445 C9.28118333,8.99947445 9.30900833,8.9889635 9.30900833,8.9689927 C9.31106944,8.92694891 9.27293889,8.92589781 9.247175,8.91433577 C8.83804444,8.71567883 8.43406667,8.51071533 8.07028056,8.23217518 C7.69206667,7.9410219 7.26850833,7.74026277 6.82536944,7.58154745 C6.46982778,7.45436496 6.10604167,7.34925547 5.75874444,7.19684672 C5.43515,7.056 5.11155556,6.91725547 4.776625,6.80689051 C4.73746389,6.79532847 4.68490556,6.75748905 4.66223333,6.81109489 C4.64265278,6.85944526 4.70654722,6.86785401 4.73643333,6.88572263 C5.02911111,7.06020438 5.33106389,7.2210219 5.61755833,7.40706569 C6.1215,7.7339562 6.61822778,8.07661314 7.11907778,8.41086131 C7.24892778,8.49810219 7.3829,8.57588321 7.53439167,8.6189781 C7.95279722,8.73564964 8.38769167,8.77454015 8.80712778,8.89331387 C8.94316111,8.93115328 9.07919444,8.97109489 9.19976944,8.99947445 Z" id="path-1"></path>
    </defs>
    <g id="Page-1" stroke="none" stroke-width="1" fill="none" fill-rule="evenodd">
        <g id="MENU" transform="translate(-161.000000, -1628.000000)">
            <g id="From-the-Chocolate-Bar" transform="translate(0.000000, 334.000000)">
                <g id="chocolate-bar" transform="translate(161.000000, 1294.000000)">
                    <polygon id="Fill-1" fill="#602C0F" points="2.94444444 0.583941606 2.94444444 39.1240876 2.94444444 77.6642336 50.6444444 77.6642336 50.6444444 39.1240876 35.0202193 15.8389667"></polygon>
                    <path d="M2.35555556,0 L2.35555556,78.2481752 L50.6444444,78.2481752 L50.6444444,39.1225503 L35.0800863,15.758064 L35.0015358,15.6391816 L2.35555556,0 Z M3.3891141,1.63360783 L34.2945818,16.4395879 L49.6108859,39.4300047 L49.6108859,77.2233271 L3.3891141,77.2233271 L3.3891141,1.63360783 Z" id="Fill-2" fill="#000000"></path>
                    <polygon id="Fill-3" fill="#602C0F" points="2.94444444 16.350365 18.8444444 16.350365 18.8444444 0.583941606 2.94444444 0.583941606"></polygon>
                    <path d="M2.35555556,16.9343066 L19.4333333,16.9343066 L19.4333333,0 L2.35555556,0 L2.35555556,16.9343066 Z M3.40817993,15.8915691 L18.3817616,15.8915691 L18.3817616,1.04378122 L3.40817993,1.04378122 L3.40817993,15.8915691 Z" id="Fill-4" fill="#000000"></path>
                    <polygon id="Fill-5" fill="#602C0F" points="18.8444444 16.350365 34.7444444 16.350365 34.7444444 0.583941606 18.8444444 0.583941606"></polygon>
                    <path d="M18.2555556,16.9343066 L35.3333333,16.9343066 L35.3333333,0 L18.2555556,0 L18.2555556,16.9343066 Z M19.308115,15.8915691 L34.2807738,15.8915691 L34.2807738,1.04378122 L19.308115,1.04378122 L19.308115,15.8915691 Z" id="Fill-6" fill="#000000"></path>
                    <polygon id="Fill-7" fill="#602C0F" points="2.94444444 32.1167883 18.8444444 32.1167883 18.8444444 16.350365 2.94444444 16.350365"></polygon>
                    <path d="M3.40916761,31.657013 L18.3818264,31.657013 L18.3818264,16.8101402 L3.40916761,16.8101402 L3.40916761,31.657013 Z M2.35555556,32.7007299 L19.4333333,32.7007299 L19.4333333,15.7664234 L2.35555556,15.7664234 L2.35555556,32.7007299 Z" id="Fill-8" fill="#000000"></path>
                    <polygon id="Fill-9" fill="#602C0F" points="18.8444444 32.1167883 34.7444444 32.1167883 34.7444444 16.350365 18.8444444 16.350365"></polygon>
                    <path d="M19.308115,31.657013 L34.2807738,31.657013 L34.2807738,16.8101402 L19.308115,16.8101402 L19.308115,31.657013 Z M18.2555556,32.7007299 L35.3333333,32.7007299 L35.3333333,15.7664234 L18.2555556,15.7664234 L18.2555556,32.7007299 Z" id="Fill-10" fill="#000000"></path>
                    <polygon id="Fill-11" fill="#602C0F" points="34.7444444 32.1167883 50.6444444 32.1167883 50.6444444 16.350365 34.7444444 16.350365"></polygon>
                    <path d="M35.208115,31.657013 L50.1807738,31.657013 L50.1807738,16.8101402 L35.208115,16.8101402 L35.208115,31.657013 Z M34.1555556,32.7007299 L51.2333333,32.7007299 L51.2333333,15.7664234 L34.1555556,15.7664234 L34.1555556,32.7007299 Z" id="Fill-12" fill="#000000"></path>
                    <polygon id="Fill-13" fill="#602C0F" points="2.94444444 47.8832117 18.8444444 47.8832117 18.8444444 32.1167883 2.94444444 32.1167883"></polygon>
                    <path d="M3.40916761,47.4234364 L18.3818264,47.4234364 L18.3818264,32.5765636 L3.40916761,32.5765636 L3.40916761,47.4234364 Z M2.35555556,48.4671533 L19.4333333,48.4671533 L19.4333333,31.5328467 L2.35555556,31.5328467 L2.35555556,48.4671533 Z" id="Fill-14" fill="#000000"></path>
                    <polygon id="Fill-15" fill="#602C0F" points="18.8444444 47.8832117 34.7444444 47.8832117 34.7444444 32.1167883 18.8444444 32.1167883"></polygon>
                    <path d="M19.308115,47.4234364 L34.2807738,47.4234364 L34.2807738,32.5765636 L19.308115,32.5765636 L19.308115,47.4234364 Z M18.2555556,48.4671533 L35.3333333,48.4671533 L35.3333333,31.5328467 L18.2555556,31.5328467 L18.2555556,48.4671533 Z" id="Fill-16" fill="#000000"></path>
                    <polygon id="Fill-17" fill="#602C0F" points="34.7444444 47.8832117 50.6444444 47.8832117 50.6444444 32.1167883 34.7444444 32.1167883"></polygon>
                    <path d="M35.208115,47.4234364 L50.1807738,47.4234364 L50.1807738,32.5765636 L35.208115,32.5765636 L35.208115,47.4234364 Z M34.1555556,48.4671533 L51.2333333,48.4671533 L51.2333333,31.5328467 L34.1555556,31.5328467 L34.1555556,48.4671533 Z" id="Fill-18" fill="#000000"></path>
                    <polygon id="Fill-19" fill="#602C0F" points="2.94444444 63.649635 18.8444444 63.649635 18.8444444 47.8832117 2.94444444 47.8832117"></polygon>
                    <path d="M3.40916761,63.1898598 L18.3818264,63.1898598 L18.3818264,48.342987 L3.40916761,48.342987 L3.40916761,63.1898598 Z M2.35555556,64.2335766 L19.4333333,64.2335766 L19.4333333,47.2992701 L2.35555556,47.2992701 L2.35555556,64.2335766 Z" id="Fill-20" fill="#000000"></path>
                    <polygon id="Fill-21" fill="#602C0F" points="18.8444444 63.649635 34.7444444 63.649635 34.7444444 47.8832117 18.8444444 47.8832117"></polygon>
                    <path d="M19.308115,63.1898598 L34.2807738,63.1898598 L34.2807738,48.342987 L19.308115,48.342987 L19.308115,63.1898598 Z M18.2555556,64.2335766 L35.3333333,64.2335766 L35.3333333,47.2992701 L18.2555556,47.2992701 L18.2555556,64.2335766 Z" id="Fill-22" fill="#000000"></path>
                    <polygon id="Fill-23" fill="#602C0F" points="34.7444444 63.649635 50.6444444 63.649635 50.6444444 47.8832117 34.7444444 47.8832117"></polygon>
                    <path d="M35.208115,63.1898598 L50.1807738,63.1898598 L50.1807738,48.342987 L35.208115,48.342987 L35.208115,63.1898598 Z M34.1555556,64.2335766 L51.2333333,64.2335766 L51.2333333,47.2992701 L34.1555556,47.2992701 L34.1555556,64.2335766 Z" id="Fill-24" fill="#000000"></path>
                    <polygon id="Fill-25" fill="#602C0F" points="2.94444444 78.8321168 18.8444444 78.8321168 18.8444444 63.0656934 2.94444444 63.0656934"></polygon>
                    <path d="M3.40916761,78.9562831 L18.3818264,78.9562831 L18.3818264,64.1094103 L3.40916761,64.1094103 L3.40916761,78.9562831 Z M2.35555556,80 L19.4333333,80 L19.4333333,63.0656934 L2.35555556,63.0656934 L2.35555556,80 Z" id="Fill-26" fill="#000000"></path>
                    <polygon id="Fill-27" fill="#602C0F" points="18.8444444 78.8321168 34.7444444 78.8321168 34.7444444 63.0656934 18.8444444 63.0656934"></polygon>
                    <path d="M19.308115,78.9562831 L34.2807738,78.9562831 L34.2807738,64.1094103 L19.308115,64.1094103 L19.308115,78.9562831 Z M18.2555556,80 L35.3333333,80 L35.3333333,63.0656934 L18.2555556,63.0656934 L18.2555556,80 Z" id="Fill-28" fill="#000000"></path>
                    <polygon id="Fill-29" fill="#602C0F" points="34.7444444 78.8321168 50.6444444 78.8321168 50.6444444 63.0656934 34.7444444 63.0656934"></polygon>
                    <path d="M35.208115,78.9562831 L50.1807738,78.9562831 L50.1807738,64.1094103 L35.208115,64.1094103 L35.208115,78.9562831 Z M34.1555556,80 L51.2333333,80 L51.2333333,63.0656934 L34.1555556,63.0656934 L34.1555556,80 Z" id="Fill-30" fill="#000000"></path>
                    <polygon id="Fill-31" fill="#BDA38A" points="21.8353885 48.130358 0.588888889 36.7883212 0.588888889 80 52.4111111 80 52.4111111 36.7883212"></polygon>
                    <path d="M0,80 L53,80 L53,35.7382072 L21.8630196,47.2048391 L0,35.620438 L0,80 Z M51.9607843,37.2149316 L51.9607843,78.9759193 L1.03921569,78.9759193 L1.03921569,37.3327009 L21.7850784,48.3272315 L51.9607843,37.2149316 Z" id="Fill-32" fill="#000000"></path>
                    <path d="M26.1706877,58.9781022 L20.8166463,48.4237196 L10.340669,52.5543645 L10.16685,52.0382904 C10.1574825,52.0157186 8.95636205,49.0239251 0,44.1607217 L0.502722007,43.2619525 C7.93842805,47.3002581 10.2407491,50.1391787 10.9048001,51.2267305 L21.3193683,47.1196834 L26.379895,57.0974583 C34.8970258,47.2694783 51.4608312,43.3748116 52.1748422,43.2116788 L52.4111111,44.2099693 C52.2362513,44.251009 34.7939834,48.3529261 26.6786138,58.3522469 L26.1706877,58.9781022 Z" id="Fill-33" fill="#000000"></path>
                    <g id="Group-37" transform="translate(36.511111, 63.649635)">
                        <mask id="mask-2" fill="white">
                            <use xlink:href="#path-1"></use>
                        </mask>
                        <use id="Clip-36" fill="#E13404" xlink:href="#path-1"></use>
                    </g>
                </g>
            </g>
        </g>
    </g>
</svg>