<?xml version="1.0" encoding="UTF-8"?>
<svg width="149px" height="115px" viewBox="0 0 149 115" version="1.1" xmlns="http://www.w3.org/2000/svg" xmlns:xlink="http://www.w3.org/1999/xlink">
    <!-- Generator: Sketch 46.1 (44463) - http://www.bohemiancoding.com/sketch -->
    <title>coffee bar</title>
    <desc>Created with Sketch.</desc>
    <defs>
        <path d="M53.2455621,0.298115385 C53.4869822,0.290153846 53.7186391,0.285730769 53.9414201,0.285730769 C53.9884615,0.285730769 54.0337278,0.286615385 54.0789941,0.286615385 C54.504142,0.288384615 54.893787,0.309615385 55.2532544,0.367115385 C56.135503,0.323769231 57.0221893,0.299 57.9079882,0.295461538 C59.597929,0.301653846 61.2825444,0.380384615 62.945858,0.529884615 C63.4943787,0.344115385 64.1298817,0.290153846 64.8674556,0.286615385 C65.112426,0.286615385 65.3698225,0.293692308 65.6405325,0.298115385 C70.302071,0.415769231 78.564497,1.242 86.6502959,2.53884615 C94.7352071,3.83392308 102.643491,5.60226923 107.897041,7.36973077 C113.148817,9.13807692 115.745858,10.9055385 117.102959,12.0245769 C118.460947,13.1436154 118.578994,13.6151154 118.638462,16.2698462 C118.685503,18.4132692 118.692604,21.9941923 118.538166,26.4845 C119.207396,26.2102692 119.901479,25.9280769 120.644379,25.6361538 C123.653254,24.4587308 127.431657,23.1618846 130.794675,22.9256923 C134.15858,22.6903846 137.110651,23.5157308 139.648225,24.9293462 C142.185799,26.3447308 144.310651,28.3475 145.904734,30.8819231 C147.497041,33.4154615 148.560355,36.4797692 148.736982,40.0146923 C148.912722,43.5505 148.206213,47.5578077 145.964201,52.0958846 C143.719527,56.6330769 139.942899,61.7010385 135.634615,66.1205769 C131.326331,70.5392308 126.487278,74.3094615 121.294083,77.3746538 C116.954734,79.9338462 112.370414,81.9985385 108.706509,82.0604615 C108.186391,82.7575385 107.611243,83.4838077 106.951775,84.2693462 C104.533136,87.1567308 100.990828,90.9296154 97.0970414,94.2274615 C93.2023669,97.5288462 88.9508876,100.356077 86.0618343,102.066923 C83.1692308,103.774231 81.6337278,104.364269 80.8659763,105.011808 C80.1,105.659346 80.1,106.366154 80.039645,107.141077 C79.9792899,107.916 79.8621302,108.723654 78.9195266,109.726808 C77.9742604,110.729077 76.2035503,111.905615 73.0757396,112.731846 C69.947929,113.556308 65.4630178,114.027808 62.5118343,114.146346 C61.2035503,114.197654 60.1988166,114.179077 59.4426036,113.995077 C58.6863905,114.179077 57.6798817,114.197654 56.3733728,114.146346 C53.4230769,114.026923 48.9363905,113.556308 45.8085799,112.731846 C42.6816568,111.905615 40.9109467,110.729077 39.9674556,109.726808 C39.0221893,108.723654 38.9068047,107.916 38.8464497,107.141077 C38.7860947,106.366154 38.7860947,105.659346 38.0192308,105.011808 C37.2532544,104.364269 35.7168639,103.774231 32.8251479,102.066923 C29.933432,100.356077 25.6828402,97.5288462 21.7881657,94.2274615 C17.8926036,90.9296154 14.3529586,87.1567308 11.933432,84.2693462 C9.51390533,81.3828462 8.14526627,79.2712692 6.9408284,76.6731538 C5.73550296,74.0750385 4.51863905,70.6719231 3.71005917,66.2453077 C2.90325444,61.8178077 2.4408284,56.2792308 1.90473373,49.7375 C1.36863905,43.1984231 0.778402367,35.8915 0.483727811,29.8195 C0.189053254,23.7519231 0.189053254,18.9228077 0.247633136,16.2698462 C0.306213018,13.6151154 0.424260355,13.1436154 1.78136095,12.0245769 C3.13846154,10.9055385 5.73550296,9.13807692 10.9881657,7.36973077 C16.2408284,5.60226923 24.1508876,3.83392308 32.2357988,2.53884615 C40.3207101,1.242 48.5840237,0.415769231 53.2455621,0.298115385 Z M10.4573964,19.0351538 C10.4573964,25.2831923 32.0201183,30.3493846 58.6162722,30.3493846 L58.6171598,30.3493846 C85.2159763,30.3493846 106.775148,25.2831923 106.775148,19.0351538 C106.775148,12.7862308 85.2142012,7.72092308 58.6162722,7.72092308 C32.0201183,7.72092308 10.4573964,12.7862308 10.4573964,19.0351538 Z M115.17426,66.2426538 C114.970118,67.3634615 114.738462,68.4188077 114.488166,69.4131154 C117.013314,68.9628462 120.086982,67.4324615 124.066864,64.4097308 C128.257101,61.2268846 133.451183,56.3951154 136.638462,52.2701538 C139.82574,48.1443077 141.006213,44.7261538 141.123373,41.9581923 C141.243195,39.1884615 140.297929,37.0680385 138.468639,35.2395385 C136.638462,33.4136923 133.923373,31.8815385 131.149704,31.5285769 C130.802663,31.4852308 130.455621,31.4560385 130.105917,31.4507308 C127.655325,31.4082692 125.092899,32.3300385 121.942012,34.6503846 C120.66568,35.5916154 119.290828,36.7593077 117.901775,37.8641923 C117.621302,41.8219615 117.294675,45.9000385 116.980473,49.7366154 C116.444379,56.2756923 115.983728,61.8151538 115.17426,66.2426538 Z" id="path-1"></path>
        <path d="M39.7136095,45.8505 C39.8210059,45.8434231 39.9275148,45.8398846 40.0322485,45.8398846 C40.7982249,45.8398846 41.4887574,46.0327308 42.0390533,46.6537308 C42.7322485,47.4339615 42.7828402,48.3353846 42.1730769,49.1837308 C42.0177515,49.3978077 41.8926036,49.6065769 41.9911243,49.8790385 C42.0568047,50.0630385 42.1784024,50.2125385 42.3585799,50.2700385 C42.5884615,50.3443462 42.6177515,50.1143462 42.7056213,49.9851923 C43.5346154,48.7538077 44.0360947,48.6051923 45.6931953,48.9510769 C46.3757396,49.0943846 47.0627219,49.2606923 47.7497041,49.3951538 C50.3902367,49.9153077 53.0431953,50.3779615 55.7121302,50.7450769 C57.75,51.0228462 59.7763314,51.3952692 61.7600592,51.9455 C64.1707101,52.6178077 66.3177515,53.8279615 68.3183432,55.3247308 C69.9426036,56.5384231 71.5659763,57.753 73.0517751,59.1427308 C74.1656805,60.1830385 75.035503,61.4223846 75.7721893,62.7431154 C76.547929,64.1310769 77.2526627,65.5570769 78.0319527,66.9468077 C78.5236686,67.8243462 78.7881657,68.8098077 79.1147929,69.7634231 C79.6881657,71.4309231 80.2428994,73.1063846 80.8207101,74.7721154 C81.0736686,75.5010385 81.1473373,76.2856923 81.4961538,76.9845385 C81.5715976,77.1322692 81.6310651,77.3056538 81.7491124,77.4135769 C82.6704142,78.2548462 82.5514793,79.3066538 82.3384615,80.3646538 C82.133432,81.3881538 81.9159763,81.5668462 80.8668639,81.6880385 C79.7529586,81.8189615 78.6426036,81.88 77.5153846,81.7526154 C76.3926036,81.627 75.2778107,81.8614231 74.1745562,82.0525 C73.3286982,82.2002308 72.4881657,82.3063846 71.8118343,82.2789615 C69.2778107,82.2878077 66.9550296,81.9976538 64.643787,81.6004615 C61.8186391,81.1165769 59.1940828,80.0338077 56.645858,78.7449231 C53.3529586,77.0809615 50.5739645,74.7588462 48.2139053,71.9484231 C46.8452663,70.3154231 45.839645,68.4241154 44.9724852,66.4638077 C44.4807692,65.3465385 43.8363905,64.2911923 43.3801775,63.1597692 C42.641716,61.3259615 41.3618343,59.8398077 40.3713018,58.1714231 C39.8653846,57.3177692 39.3887574,56.4508462 39.2378698,55.4468077 C39.0923077,54.4746154 39.2032544,53.5661154 39.8822485,52.7973846 C40.0428994,52.6151538 40.1928994,52.4143462 39.9701183,52.1781538 C39.2236686,51.3766923 39.1757396,50.3478846 39.0985207,49.3482692 C39.0195266,48.3583846 39.1056213,47.3640769 39.1846154,46.3724231 C39.2112426,46.023 39.3550296,45.8717308 39.7136095,45.8505 Z M74.0236686,70.1508846 C74.4434911,70.8214231 74.9245562,71.4530385 75.408284,72.1456923 C75.5511834,71.9015385 75.4446746,71.8051154 75.3816568,71.691 C74.6467456,70.3888462 73.8967456,69.0981923 73.1902367,67.7818846 C72.5405325,66.5752692 71.7736686,65.4889615 70.7360947,64.5636538 C69.8254438,63.7533462 68.8952663,62.9527692 68.1088757,61.9982692 C67.5994083,61.3808077 67.0615385,60.7474231 66.3798817,60.3166154 C64.6411243,59.2143846 62.8792899,58.1457692 61.1032544,57.1019231 C59.7035503,56.281 58.3464497,55.3707308 56.8535503,54.7276154 C55.4050296,54.1021923 54.0266272,53.36 52.6757396,52.555 C51.9576923,52.1250769 51.1633136,51.9419615 50.3467456,51.8437692 C50.1781065,51.8225385 49.9109467,51.75 49.8825444,51.9844231 C49.8585799,52.1808077 50.1301775,52.1525 50.2810651,52.1923077 C51.0239645,52.3878077 51.7588757,52.6071923 52.4147929,53.0203077 C54.6994083,54.4551538 57.0772189,55.7192692 59.4452663,57.0010769 C61.4218935,58.0705769 63.3710059,59.1701538 65.1869822,60.5041538 C67.3286982,62.0761154 69.3195266,63.8196923 71.1789941,65.7216154 C71.7372781,66.2939615 72.2378698,66.8981538 72.5733728,67.6173462 C72.9869822,68.5055 73.5088757,69.3273077 74.0236686,70.1508846 Z M53.4860947,68.2286154 C53.6698225,68.4701154 53.9565089,68.6346538 54.1943787,68.8336923 C54.239645,68.7965385 54.2831361,68.7593846 54.3257396,68.7222308 C53.6538462,67.6385769 52.9872781,66.5540385 52.0535503,65.6623462 C51.9736686,65.5862692 51.8556213,65.4836538 51.7482249,65.5951154 C51.6461538,65.7021538 51.7571006,65.8162692 51.8210059,65.9065 C52.3695266,66.6831923 52.9100592,67.4705 53.4860947,68.2286154 Z M73.8186391,77.4763846 C73.8363905,77.4772692 73.854142,77.4772692 73.8701183,77.4772692 C74.112426,77.4772692 74.2384615,77.4286154 74.2384615,77.3472308 C74.2384615,77.1853462 74.0902367,77.1871154 73.9899408,77.1437692 C72.3763314,76.4466923 70.7733728,75.7195385 69.3257396,74.7048846 C67.8159763,73.6451154 66.1428994,72.9356538 64.4023669,72.3951538 C63.0026627,71.9599231 61.5745562,71.6087308 60.2076923,71.0788462 C58.9331361,70.5816923 57.6550296,70.0995769 56.339645,69.7253846 C56.1887574,69.6829231 55.9775148,69.5502308 55.8994083,69.7598846 C55.8284024,69.9447692 56.0751479,69.9686538 56.1931953,70.0323462 C57.3585799,70.6586538 58.5514793,71.2327692 59.6902367,71.9015385 C61.6943787,73.0807308 63.6674556,74.3191923 65.6565089,75.5249231 C66.1721893,75.8407308 66.7065089,76.1211538 67.3002959,76.2609231 C68.9423077,76.6466154 70.6340237,76.7359615 72.2769231,77.1278462 C72.8085799,77.2543462 73.3473373,77.3861538 73.8186391,77.4763846 Z" id="path-3"></path>
    </defs>
    <g id="Page-1" stroke="none" stroke-width="1" fill="none" fill-rule="evenodd">
        <g id="MENU-1" transform="translate(-645.000000, -1244.000000)">
            <g id="coffee-bar" transform="translate(645.000000, 1244.000000)">
                <mask id="mask-2" fill="white">
                    <use xlink:href="#path-1"></use>
                </mask>
                <use id="Clip-5" fill="#FFFFFF" xlink:href="#path-1"></use>
                <mask id="mask-4" fill="white">
                    <use xlink:href="#path-3"></use>
                </mask>
                <use id="Clip-9" fill="#E13404" xlink:href="#path-3"></use>
            </g>
        </g>
    </g>
</svg>