<?xml version="1.0" encoding="UTF-8"?>
<svg width="32px" height="37px" viewBox="0 0 32 37" version="1.1" xmlns="http://www.w3.org/2000/svg" xmlns:xlink="http://www.w3.org/1999/xlink">
    <!-- Generator: Sketch 46.2 (44496) - http://www.bohemiancoding.com/sketch -->
    <title>Fill 1</title>
    <desc>Created with Sketch.</desc>
    <defs></defs>
    <g id="Page-1" stroke="none" stroke-width="1" fill="none" fill-rule="evenodd">
        <g id="menu_detail" transform="translate(-50.000000, -543.000000)" stroke="#007F38">
            <g id="Citrusy-Madagascar-Fresh-Bar" transform="translate(24.000000, 322.000000)">
                <g id="Bean" transform="translate(27.000000, 222.000000)">
                    <path d="M9.49242622,20.4226063 C9.53279032,20.4010487 9.57339327,20.3792516 9.61375738,20.357694 C9.26887117,19.397901 8.92708989,18.4366709 8.34431819,17.5817916 C8.29511697,17.5094538 8.21868789,17.408133 8.11694169,17.4773569 C8.01901693,17.5441856 8.08637005,17.6517341 8.12124082,17.7329345 C8.42194147,18.4342756 8.71308848,19.1401677 9.0381509,19.8300114 C9.14180783,20.0501386 9.33813502,20.226432 9.49242622,20.4226063 M25.5707155,26.5945518 C25.724529,26.4278395 25.6566982,26.3341837 25.6256489,26.2352582 C25.2678652,25.0939022 24.8962289,23.9566182 24.5618517,22.8085554 C24.2547023,21.754867 23.8355366,20.7766303 23.1763358,19.8783963 C22.5985798,19.0913038 22.0033883,18.3080437 21.5460081,17.4294511 C21.2503231,16.8610487 20.9343366,16.274921 20.4731349,15.8231692 C19.293261,14.6679205 18.0906973,13.5347085 16.8730866,12.4192217 C15.9139017,11.54015 15.0015296,10.5995194 13.9398819,9.84476328 C12.9088059,9.11156481 11.9508152,8.29884269 11.0265011,7.44013099 C10.5354443,6.98406765 9.94455197,6.70573488 9.32069964,6.49087731 C9.19148673,6.4463249 8.99348765,6.34476458 8.93210555,6.52249514 C8.88027708,6.67267987 9.09809995,6.69639324 9.20987748,6.7529221 C9.75921146,7.03125488 10.298753,7.32707327 10.7441912,7.76014182 C12.2940295,9.26773776 13.948719,10.6570063 15.59075,12.0596885 C16.9600247,13.2290694 18.3046987,14.4190498 19.5058294,15.7675985 C20.9221557,17.3585505 22.1896842,19.0577697 23.3294328,20.8580702 C23.6719306,21.3998849 23.9635553,21.95679 24.1061433,22.5769308 C24.2814525,23.3403099 24.5527757,24.0703945 24.8190833,24.8014372 C25.0354731,25.3959483 25.3067963,25.9705786 25.5707155,26.5945518 M23.4316567,30.4933664 C23.6482853,30.5448651 23.7677058,30.5309724 23.7822751,30.4629462 C23.8097418,30.3371934 23.6931874,30.313001 23.621774,30.2622208 C22.4729495,29.4444686 21.3386942,28.6051587 20.3742548,27.5679979 C19.3663464,26.4843684 18.1740528,25.648412 16.8995979,24.9307829 C15.8752095,24.3542364 14.8140395,23.8385303 13.8314482,23.19276 C12.9142993,22.5901049 11.9942843,21.9967914 11.025068,21.4820434 C10.9142459,21.4231192 10.771419,21.2837133 10.6734943,21.4343771 C10.5872727,21.5675553 10.7769124,21.6274375 10.8590736,21.6971405 C11.6668334,22.3826727 12.5058814,23.0334732 13.2864133,23.7487069 C14.6618979,25.0093484 16.0006009,26.3102308 17.3586501,27.5900346 C17.7107015,27.9220218 18.0828156,28.2331701 18.5239546,28.442279 C19.746581,29.0214603 21.0585339,29.3766819 22.2818768,29.9601747 C22.6776361,30.1489236 23.0774557,30.3427026 23.4316567,30.4933664 M21.0551901,33.9083322 C19.0666011,33.4884378 17.2922523,32.867818 15.5475198,32.1676745 C13.4132378,31.3113581 11.5376205,30.0222127 9.75467349,28.5845592 C7.4512922,26.7279695 5.66117993,24.4431017 4.28259046,21.8470857 C3.48151821,20.3387712 3.01004634,18.6912903 2.65942796,17.0131496 C2.45951815,16.0552729 2.13158965,15.1225467 1.96344568,14.1603585 C1.6911671,12.6024614 0.936668809,11.2251693 0.439402131,9.75326318 C0.185036612,9.00090238 -0.0428175719,8.24159524 0.0068613277,7.43150795 C0.0548683412,6.64728979 0.294664568,5.95624843 0.956014919,5.46880678 C1.11221684,5.3535933 1.26316427,5.22328949 1.1289357,5.00052746 C0.676332268,4.24840619 0.811516196,3.43520502 0.91756154,2.64116617 C1.02265152,1.85407366 1.25647672,1.09093405 1.48385323,0.329231627 C1.56410376,0.0611986024 1.70167609,-0.0334153784 1.98589672,0.0101789115 C2.69382104,0.118685578 3.30310408,0.373065446 3.67545699,1.03081226 C4.08721864,1.75826203 3.97687416,2.47134006 3.35612676,3.03183807 C3.19920831,3.17339975 3.06641279,3.31376378 3.09793978,3.5446698 C3.11871894,3.69988464 3.18893815,3.83665573 3.32006178,3.91258645 C3.48772807,4.00983525 3.54934901,3.8347395 3.63939202,3.74850904 C4.49706956,2.92524764 4.91432455,2.89339027 6.15534167,3.44454665 C6.66646112,3.67162021 7.17781941,3.91809561 7.69228263,4.13918094 C9.67657252,4.99166488 11.6792532,5.80079407 13.7108335,6.53830406 C15.2609108,7.10095784 16.7880592,7.73283551 18.2509595,8.49932852 C20.0300851,9.43109658 21.5092266,10.740602 22.827867,12.2481979 C23.8983517,13.4719519 24.96812,14.6952269 25.9003159,16.03132 C26.5996419,17.0335096 27.0730245,18.1487569 27.4303304,19.3061614 C27.8055494,20.5222504 28.119864,21.7567832 28.4981879,22.9733514 C28.7372676,23.7427187 28.7790648,24.5583152 28.8760342,25.3578632 C29.0460889,26.7586292 29.2006189,28.1615509 29.374495,29.5618378 C29.4506853,30.1747927 29.3764058,30.7999636 29.5338019,31.4047745 C29.5674785,31.5338806 29.5863469,31.6799934 29.6601487,31.7832304 C30.2419651,32.5971501 29.9715972,33.3988539 29.628144,34.190737 C29.2963941,34.9557929 29.0950512,35.0585508 28.253376,34.9763924 C27.357484,34.8889642 26.4761612,34.7500374 25.6144233,34.4606863 C24.7548351,34.1720538 23.8407911,34.1670236 22.9446602,34.1306152 C22.2558431,34.1028299 21.5796846,34.0436662 21.0551901,33.9083322" id="Fill-1"></path>
                </g>
            </g>
        </g>
    </g>
</svg>