<?xml version="1.0" encoding="UTF-8"?>
<svg width="34px" height="33px" viewBox="0 0 34 33" version="1.1" xmlns="http://www.w3.org/2000/svg" xmlns:xlink="http://www.w3.org/1999/xlink">
    <!-- Generator: Sketch 46.2 (44496) - http://www.bohemiancoding.com/sketch -->
    <title>noun_212334_cc</title>
    <desc>Created with Sketch.</desc>
    <defs></defs>
    <g id="Page-1" stroke="none" stroke-width="1" fill="none" fill-rule="evenodd">
        <g id="menu_detail" transform="translate(-51.000000, -619.000000)" fill-rule="nonzero" fill="#4A4A4A">
            <g id="Citrusy-Madagascar-Fresh-Bar" transform="translate(24.000000, 322.000000)">
                <g id="Seasonal" transform="translate(27.000000, 297.000000)">
                    <g id="noun_212334_cc">
                        <path d="M22.8292637,32.7834878 C20.6837871,32.7834878 18.6503877,31.7540505 17.3915213,30.0308042 C17.1273395,29.6693072 16.8838385,29.2607161 16.6670226,28.8163069 C16.451541,29.2567363 16.2100415,29.6620109 15.947861,30.0208548 C14.6883275,31.7447643 12.654928,32.7735383 10.5101186,32.7735383 C9.08580498,32.7735383 7.72286696,32.3324457 6.56740506,31.4980177 C5.11640644,30.4493448 4.16308366,28.9018723 3.88222369,27.1408181 C3.60203086,25.3791006 4.02832425,23.6147299 5.08238302,22.1713951 C5.34656484,21.8092348 5.66211534,21.4530442 6.0203619,21.1107828 C5.53069156,21.0424632 5.06770625,20.9396521 4.64474849,20.8030129 C2.93824068,20.2518128 1.550619,19.0731336 0.736725518,17.4838734 C-0.0778350915,15.8946132 -0.22126714,14.0851383 0.333781531,12.3884239 C1.23640275,9.62844408 3.8021686,7.77320167 6.71950975,7.77320167 C7.42266035,7.77320167 8.12114107,7.88397231 8.79560526,8.10153381 C9.2232329,8.23949964 9.66153455,8.42787606 10.0991691,8.66135669 C10.0131099,8.17847629 9.96907955,7.70886184 9.96907955,7.26577928 C9.96907955,3.58315294 12.9818197,0.588365854 16.6843679,0.588365854 C20.3869161,0.588365854 23.4003234,3.58381624 23.4003234,7.26577928 C23.4003234,7.71284162 23.355626,8.18510927 23.2682325,8.67130615 C23.7031985,8.44047871 24.1381645,8.25409218 24.5624566,8.11678965 C25.2369208,7.89856485 25.9360686,7.78845751 26.6385521,7.78845751 C29.5558932,7.78845751 32.1229933,9.64303662 33.0242803,12.4036798 C33.5786618,14.1003941 33.4352298,15.9092057 32.6213363,17.4991293 C31.8067757,19.0883895 30.4184869,20.2670687 28.7133133,20.8176054 C28.2870199,20.9555712 27.820699,21.0590456 27.3270259,21.1267019 C27.682604,21.4676367 27.995486,21.8211741 28.2583335,22.1806813 C29.3130594,23.6233528 29.7393528,25.3883868 29.4584929,27.149441 C29.1776329,28.9111585 28.223643,30.4586309 26.7726444,31.5066406 C25.6165153,32.3423951 24.2529102,32.7834878 22.8292637,32.7834878 Z M16.6676898,26.4032316 L16.6676898,26.4032316 C16.9598909,26.4032316 17.2174014,26.5610963 17.2994579,26.8396811 C17.5789836,27.7935026 17.978592,28.624614 18.4555869,29.2779618 C19.4682839,30.6635898 21.1034093,31.4820986 22.8285966,31.4820986 C23.9727173,31.4820986 25.0681379,31.1232548 25.9974442,30.451998 C27.1642472,29.6089472 27.9307748,28.3632749 28.1562633,26.946472 C28.3817518,25.5303324 28.0388491,24.1108763 27.1915994,22.9507694 C26.7159387,22.3000748 26.0308005,21.6606562 25.2089015,21.1034865 C24.9674019,20.9396521 24.8626632,20.6365253 24.9533923,20.3599303 C25.0441214,20.0833353 25.3063018,19.899602 25.5998372,19.9082249 C26.5898519,19.9380732 27.5371705,19.8206696 28.3050323,19.5732598 C29.6773101,19.1301772 30.7927445,18.1823254 31.447862,16.9048149 C32.1023124,15.6273044 32.2170581,14.1726935 31.771418,12.8089544 C31.0462523,10.5888985 28.9828322,9.09714298 26.6378849,9.09714298 C26.0728294,9.09714298 25.5117766,9.18668811 24.9680691,9.36179859 C24.198873,9.60987176 23.3763069,10.0615772 22.5890984,10.665841 C22.3576058,10.8442679 22.0360511,10.8482477 21.7992215,10.6777803 C21.5623918,10.5073129 21.4683271,10.2008696 21.5670617,9.92759114 C21.9039602,8.99300532 22.0820828,8.07301203 22.0820828,7.26577928 C22.0820828,4.30548365 19.659749,1.89705133 16.6823665,1.89705133 C13.7056512,1.89705133 11.2833174,4.30548365 11.2833174,7.26577928 C11.2833174,8.06969554 11.4607729,8.98703564 11.7963371,9.91830498 C11.8944046,10.1922467 11.7996728,10.4980268 11.5628431,10.6684942 C11.3260134,10.8396249 11.0044588,10.8343185 10.7729661,10.6558915 C9.98308919,10.0483112 9.15785457,9.59527922 8.38599001,9.34587945 C7.84361673,9.17010568 7.2818968,9.08188715 6.71684124,9.08188715 C4.37122691,9.08188715 2.30847392,10.5729794 1.58330817,12.7930353 C1.13766813,14.1567744 1.25241377,15.6113853 1.90686418,16.8888958 C2.5613146,18.1670696 3.67741607,19.1142581 5.04969385,19.5573406 C5.81422003,19.8047505 6.75820304,19.9214908 7.74554924,19.8923057 C8.03841747,19.8836829 8.30059791,20.0687428 8.39132702,20.3446745 C8.481389,20.6219327 8.37731738,20.9243963 8.13515071,21.0875674 C7.31058321,21.646727 6.62144225,22.2868088 6.14511443,22.9401566 C5.29719753,24.1002635 4.95496199,25.5190563 5.18045051,26.9351959 C5.40593904,28.3513356 6.17246659,29.5956812 7.33926962,30.4380687 C8.26857587,31.1093255 9.36399644,31.4635263 10.5081172,31.4635263 C12.2333045,31.4635263 13.8684299,30.6363946 14.8811269,29.2501034 C15.3567876,28.600072 15.7557288,27.7888595 16.0345874,26.8390178 C16.1179781,26.5610963 16.3754887,26.4032316 16.6676898,26.4032316 Z M16.6783638,23.2300175 C13.6135878,23.2300175 11.1205387,20.7506124 11.1205387,17.7034248 C11.1205387,14.6569005 13.6135878,12.1781587 16.6783638,12.1781587 C19.7431397,12.1781587 22.2361889,14.6569005 22.2361889,17.7034248 C22.2361889,20.7506124 19.7431397,23.2300175 16.6783638,23.2300175 Z M16.6783638,13.4875075 C14.3394207,13.4875075 12.437445,15.3792312 12.437445,17.7034248 C12.437445,20.028945 14.3400878,21.9206687 16.6783638,21.9206687 C19.0166397,21.9206687 20.9192825,20.0282817 20.9192825,17.7034248 C20.9192825,15.3785679 19.0173069,13.4875075 16.6783638,13.4875075 Z" id="Shape"></path>
                    </g>
                </g>
            </g>
        </g>
    </g>
</svg>